<?xml version="1.0" encoding="UTF-8"?>
<svg id="acstb" width="453.2" height="127.12" version="1.2" viewBox="0 0 453.19778 127.12085" xmlns="http://www.w3.org/2000/svg" xmlns:cc="http://creativecommons.org/ns#" xmlns:dc="http://purl.org/dc/elements/1.1/" xmlns:rdf="http://www.w3.org/1999/02/22-rdf-syntax-ns#">
<metadata>
<rdf:RDF>
<cc:Work rdf:about="">
<dc:format>image/svg+xml</dc:format>
<dc:type rdf:resource="http://purl.org/dc/dcmitype/StillImage"/>
<dc:title>Link Preview</dc:title>
</cc:Work>
</rdf:RDF>
</metadata>
<title>Link Preview</title>
\n
<path d="m158.79 126.14c1.9583-1.5673 2.6011-4.096 3.599-6.2824 1.8794-4.5555 2.8266-9.4423 4.8466-13.945 1.3276-1.8946 3.6532-2.558 5.5824-3.6379 1.8153-0.85301 3.828-1.706 4.9078-3.5015 1.4279-1.8089 3.7856-2.3714 5.5801-3.7037 1.6589-1.0468 3.1524-2.3665 4.3324-3.936 1.6832-1.6442 4.3502-1.7833 5.8742-3.6409 1.3681-1.4362 2.7229-2.974 4.5606-3.8177 0.85197-0.48224 1.781-0.86431 2.7619-0.96567 1.0675 0.33602 1.1092 2.0126 0.16421 2.5197-2.7401 2.9059-5.3693 6.2387-6.1053 10.268-0.49365 2.6827-0.51946 5.5115 0.28083 8.1356 0.74405 1.6306 2.4971 2.3345 3.977 3.1273 1.1374 0.68214 2.0426 1.67 2.9058 2.6564 2.3784 1.9714 5.5231 2.4738 8.4413 3.1539 2.2713 0.45918 4.5676 0.80269 6.8782 0.9849 0.98178-0.15732 2.004-0.74652 2.9914-0.29174 1.663 0.31377 3.0346-0.93021 4.5741-1.2978 1.388-0.53758 2.4794-1.6133 3.7787-2.2923 1.1044-0.23839 2.3674 0.41598 3.3543-0.3372 1.0071-0.8826 1.4941-2.2933 2.7525-2.8988 2.5317-1.6924 5.3704-2.8696 7.8588-4.6333 2.8978-1.9113 5.4402-4.2969 7.8728-6.757 2.287-1.974 5.0277-3.3768 7.1437-5.5575 2.626-2.4306 5.0439-5.1179 6.9315-8.1674 0.45755-0.66364 1.0808-1.654 2.0382-1.2654 1.0513 0.30944 1.1806 1.4555 1.0642 2.3755-0.0895 1.9768-0.54375 3.9161-0.65072 5.8916-0.76762 6.4249-1.6688 12.887-3.7278 19.046-0.61335 1.1728-2.095 1.4424-3.3015 1.328-2.646 0.2402-5.5211-0.3367-7.4831-2.2368-0.71416-0.70963-1.2782-1.8218-2.4128-1.8686-1.6949-0.0889-3.1621 0.91587-4.7261 1.4021-1.7284 0.72844-3.4813 1.4852-5.0149 2.5698-1.3373 1.3903-0.77969 4.0636 1.0358 4.7564 1.8056 1.3648 2.3355 3.7349 3.8934 5.317 1.5503 1.8806 3.8706 3.2076 6.3454 3.2209 2.9721 0.19169 5.9891-0.25484 8.7858-1.2724 3.1192-1.239 5.7651-3.4597 7.8482-6.061 1.9194-2.0173 4.4111-3.5874 7.1959-4.0155 3.7352-0.90223 7.7625-1.0761 11.134-3.0915 2.0995-1.5422 3.631-3.8485 6.0802-4.9022 1.682-1.0502 3.296-2.3338 4.3052-4.0726 0.83334-0.68603 2.2123 0.02532 2.3131 1.0494 0.73107 1.5687-0.47776 3.146-0.34332 4.7472 0.0753 1.9641 0.66835 3.8564 1.0917 5.7614 0.56555 1.7084 1.8463 3.1595 3.4936 3.8896 1.633 1.1019 3.2528 2.5549 5.3285 2.6164 2.6952 0.0387 5.2069-1.0807 7.79-1.6821 6.344-1.9627 12.196-5.2263 17.735-8.8395 3.6421-2.4686 6.8526-5.6291 9.1173-9.4195 0.38282-0.49281 0.53396-1.4564 1.3508-1.3068 0.77136 0.17491 1.2173 1.2969 0.6046 1.8761-1.1917 2.3624-2.0445 4.9414-3.7755 6.9919-0.5007 0.67292-1.1795 1.186-1.716 1.8194-0.56801 0.94481-4e-3 2.0322 0.34197 2.948 0.26502 1.0573-0.55542 2.2536 0.26305 3.2004 0.94602 1.4707 3.1562 2.014 4.5726 0.89434 0.83427-0.59245 1.2697-1.8736 2.4435-1.8676 0.97348-0.0101 1.3288 1.0813 1.4569 1.8728 0.14003 1.5614 0.44316 3.1562 1.311 4.4929 0.88843 1.466 2.4633 2.2796 3.9227 3.0656 1.1667 0.54403 2.4836 0.98716 3.7813 0.78658 1.1388-0.31766 2.337-1.036 3.5319-0.51286 0.87301 0.29467 1.8069 0.88536 2.7434 0.48026 1.7383-1.5613 4.0549-2.1205 6.2376-2.7559 2.5213-0.76009 5.0269-1.7831 7.0364-3.5292 0.81752-0.67364 1.7996-1.0816 2.7968-1.4057 1.1884-0.44138 2.3262-1.1885 2.8968-2.359 0.47418-0.78294 0.86856-1.6644 1.6282-2.2201 1.2311-0.37911 2.1566 0.7979 3.2887 1.0121 4.1044 0.87777 8.1694 1.9956 12.355 2.4375 4.3054 0.52067 8.6713 0.50733 12.973-0.0451 5.0332-0.54776 10.097-1.5024 14.729-3.6144 4.7241-2.4465 9.1289-5.65 12.539-9.7624 1.6547-2.0523 3.0816-4.3154 5.0945-6.0515 2.0024-1.8972 3.9861-3.8745 5.3859-6.2743 0.99052-1.4295 2.0387-2.9231 2.3046-4.6833-0.14349-1.1021-1.9514-1.4293-2.3512-0.33153-1.2873 2.1955-1.9732 4.7518-3.7186 6.6665-1.2057 1.4203-2.7964 2.4989-3.7744 4.1124-1.1682 1.7001-2.2998 3.4604-3.8492 4.8463-4.2537 4.6217-9.3601 8.6759-15.376 10.699-7.2122 2.5547-15.001 3.143-22.589 2.525-3.9842-0.36717-7.9141-1.1622-11.805-2.0764-0.86709-0.0476-2.0658-0.317-2.203-1.3446-0.0936-1.2987 1.0649-2.1281 1.8663-2.9623 1.1398-1.1974 1.9602-2.7141 2.212-4.3563 0.91414-3.5125 1.7082-7.0923 1.7802-10.736-0.22113-0.97718-1.0419-1.9706-0.52845-2.9921 0.59765-1.3452-0.14475-2.769-0.77112-3.9545-1.538-2.9566-4.2974-5.2431-7.501-6.1747-1.7591-0.62908-3.361-1.634-4.7738-2.8448-1.3042-0.74244-2.8632-0.15522-4.1029 0.43646-3.044 1.3573-5.9563 2.9909-8.7977 4.7283-1.1048 0.38062-1.9992-1.057-1.5626-2.0077 0.93214-3.4031 1.8173-6.8536 3.3462-10.053 1.2007-2.655 2.7729-5.1212 4.4671-7.484 1.7234-2.7399 2.682-5.8558 4.0405-8.7724 0.99501-1.9568 2.3645-3.7088 3.9547-5.2151 2.914-3.6026 4.5098-8.0065 6.5242-12.125 1.6189-3.6543 3.2628-7.3899 3.7752-11.387 0.0662-2.0232-0.85005-3.8992-1.8317-5.6051-0.36578-1.123-0.2504-2.3208-0.16943-3.4775-0.23802-1.9124-2.829-3.0451-4.3609-1.8369-2.3325 1.0492-3.9274 3.1323-5.5226 5.0411-1.9112 1.7154-4.0693 3.2074-5.5755 5.3246-2.5651 3.1506-4.0781 6.9874-5.2726 10.829-4.9179 13.685-9.4238 27.519-13.406 41.506-1.3313 4.2654-2.651 8.5838-4.8305 12.508-2.5648 3.8812-6.8319 6.2723-9.2612 10.264-1.2203 1.8307-2.5829 3.5885-4.2749 5.01-5.0264 4.5845-11.153 7.7158-17.298 10.515-2.3277 1.0044-4.7318 1.9711-7.2733 2.2291-1.9395 0.025-3.9541-0.91695-4.9341-2.6366-0.33428-1.062 0.86112-1.9969 0.40212-3.0524-0.21601-1.0166 0.63639-2.0656 0.0599-3.0369-0.83002-1.617-0.0461-3.4117 0.37163-5.0256 2.7639-10.173 7.2716-19.815 9.4672-30.152 0.8569-3.0798 2.2499-6.2636 4.9788-8.1241 3.2348-2.1597 7.163-2.7049 10.847-3.6793 2.3155-0.55952 4.4084-1.7526 6.3957-3.0268 1.9207-0.88803 4.166-1.2831 5.6879-2.8643 0.94359-0.46189 0.64774-2.2622-0.47788-2.1968-1.2269 0.20376-1.7998 1.5293-2.9476 1.9044-3.9197 2.1459-8.052 3.8637-12.142 5.6507-1.8065 0.74951-3.6296 1.4608-5.4804 2.0939-1.1602-0.04547-1.4026-1.6249-0.79436-2.4084 2.3805-4.7197 4.3757-9.642 7.1092-14.179 0.82489-1.0928 1.7213-2.3315 1.6052-3.779-0.11997-1.5831-0.58698-3.3442-2.01-4.2493-1.0457-0.27898-2.0187 0.81726-3.0513 0.28318-1.108-0.25147-2.178 0.55635-2.5831 1.5494-3.6361 5.3996-6.6637 11.182-9.4662 17.049-0.89098 2.0176-1.722 4.0675-2.7922 5.9997-0.66635 0.73674-1.2902 1.6203-1.3282 2.6494-0.60975 1.4794-2.2959 1.8972-3.6054 2.5309-4.2336 1.8298-8.8275 2.8197-12.828 5.1787-0.88743 0.64976-0.67679 2.4034 0.50157 2.571 1.4685 0.29693 2.6617-0.821 3.7535-1.6183 2.5489-1.7969 5.3807-3.1895 8.3301-4.1885 0.98464-0.32247 2.0198 0.48547 1.861 1.5233-0.0659 1.1251-0.64299 2.1335-0.89353 3.2194-2.1435 6.7091-4.7906 13.267-8.0253 19.525-2.2105 3.6563-5.247 6.8206-8.8241 9.1576-1.7149 1.0129-3.5321 1.964-4.8421 3.5067-2.1309 2.1766-4.9932 3.4168-7.8243 4.4056-1.7518 0.54558-3.668 0.89173-5.4749 0.43894-1.0047-0.57644-0.55467-1.9264 0.0177-2.6582 0.93006-1.7523 1.1382-3.7579 1.711-5.6327 0.17119-1.1105-0.88885-2.206-0.23289-3.2776 0.71086-1.4971 0.57833-3.2017 0.71372-4.8113 0.0699-2.7311 2e-3 -5.467-0.12426-8.1941 3e-3 -1.087-0.21071-2.1323-0.70725-3.0953-0.40721-0.85349 0.40397-1.7025-0.10709-2.4854-0.30872-0.76553-0.65614-1.6087-0.41434-2.443 0.13348-3.6487 2.3813-6.9573 1.9815-10.662-0.38103-2.8257-3.8521-4.7732-6.4252-3.4591-0.89742 0.48618-1.4234 1.4327-1.6723 2.3905-1.197 2.9363-2.1258 5.9857-2.7101 9.1037 0.0534 1.0269 1.068 1.9316 0.60732 2.9885-2.5382 3.9859-6.1288 7.1183-9.2672 10.606-3.441 3.568-7.5106 6.4344-11.511 9.3249-1.9198 1.8059-3.8196 3.7421-6.2645 4.8299-1.1908 0.72289-2.3383 1.549-3.263 2.5999-1.4132 1.0507-3.4831 1.0544-4.5696 2.5672-1.8485 1.7536-4.5039 2.0046-6.7359 3.0345-2.6589 0.98165-5.3599 2.3175-8.2741 2.0578-2.7928-0.45703-5.5472-1.1714-8.22-2.0936-3.3681-1.6012-5.4666-5.6268-4.5845-9.295 0.7763-5.3839 2.7082-10.596 5.5809-15.211 1.1859-1.7075 2.908-2.9522 4.1426-4.613 1.1258-1.7457 1.8039-3.8415 3.4639-5.1919 2.0489-1.8534 4.5922-3.0071 6.9589-4.3837 1.4577-0.74247 2.9476-1.5291 4.5668-1.825 1.0178 0.06729 1.8206 0.80372 2.4521 1.5407 1.5706 1.158 4.1906-0.41927 3.8103-2.3618-0.1402-1.6084-1.9004-2.7522-3.4398-2.4201-5.0398-0.17237-9.8803 1.5673-14.477 3.4441-3.2056 1.3063-6.0391 3.5129-8.0654 6.3206-2.7406 2.8306-6.5072 4.2294-9.9927 5.8851-2.8719 1.3209-5.5014 3.1887-7.6136 5.5462-2.1007 1.8072-4.9304 2.6226-6.7671 4.7617-1.1447 1.1868-2.4737 2.2532-4.0657 2.7602-1.4633 0.59934-2.9842 1.4065-3.7458 2.8644-1.234 1.6585-3.1338 2.6068-4.9519 3.4834-0.66508 0.51415-1.6841 1.1273-2.4684 0.5023-0.93964-0.99178-0.6162-2.4577-0.49864-3.6788 0.20842-1.7899 1.0314-3.4413 2.0215-4.9211 2.8586-5.6216 4.2061-11.828 5.7956-17.887 1.2455-5.1406 2.4115-10.311 4.0884-15.333 1.0548-1.8513 2.1823-3.7784 2.3154-5.9566 0.46183-2.1186 1.5806-4.0093 2.7269-5.8202 2.5463-5.0698 3.969-10.592 6.0137-15.863 1.4078-4.0055 2.8652-8 4.6218-11.868 0.85739-1.1055 2.1614-2.0294 2.3392-3.5179 0.7811-2.6341 0.80488-5.5973 2.5183-7.8731 0.70476-1.0017 0.0862-2.1601-0.23097-3.1233 0.0327-1.0005 0.89912-1.9808 0.36548-2.9751-0.75228-1.2192-1.9549-2.3098-3.4129-2.5133-1.3744 0.089716-2.1433 1.3829-2.9145 2.3516-2.6614 3.318-4.4526 7.2269-5.8963 11.201-1.9474 4.9761-3.7198 10.147-7.0079 14.434-2.8018 3.4465-6.7131 5.9124-9.0077 9.7838-0.78779 1.4037-1.4987 2.8831-2.6647 4.0239-1.3937 1.4928-2.8958 2.9187-3.9341 4.6979-1.5097 2.3541-3.1475 4.6954-5.4051 6.3972-1.1914 0.93183-2.5736 1.6423-3.5222 2.8547-0.64884 0.71964-1.1064 1.5875-1.5324 2.4417-0.83147 0.86333-2.3825 0.50737-2.9392-0.49414-1.54-1.5776-3.0722-3.3088-5.1912-4.103-3.5818-1.7885-7.3719-3.3573-11.386-3.7701-4.0961-0.09711-8.041 1.169-12.018 1.9566-4.3528 1.0696-8.8291 2.1765-12.602 4.7022-4.3212 2.9985-7.6854 7.212-10.209 11.79-2.0323 3.8252-3.5852 7.92-4.4926 12.158-0.67035 4.1002 0.42601 8.3466 2.5862 11.852 1.5138 2.6696 3.3869 5.2714 3.8952 8.3655 0.0843 1.2052-0.94026 2.1097-1.9341 2.59-5.2307 3.0667-10.728 5.6581-16.358 7.8992-5.1316 2.0402-10.351 3.8595-15.62 5.5089-8.0509 2.3429-16.372 3.69-24.724 4.3355-1.3696 0.0972-2.7767-0.0624-4.0193-0.67224-1.4733-0.38965-2.7477 0.78999-4.1981 0.79024-2.8619 0.13598-5.7207-0.35574-8.441-1.2284-2.9839-0.95717-5.8871-2.1457-8.8088-3.2739-2.5261-1.0042-5.0143-2.4663-6.5069-4.8105-1.5326-2.4103-2.637-5.0633-3.7017-7.7046-0.52792-0.95496-0.078238-2.018 0.19992-2.972 0.13606-1.1552-0.947-2.0911-0.79254-3.2634 0.04414-1.9278 0.44641-3.8242 0.70571-5.7294 0.60564-3.4722 1.5072-7.0541 3.7462-9.8636 1.0604-1.4061 2.0552-2.8732 2.764-4.4914 2.6144-5.0408 4.798-10.371 8.2766-14.906 1.322-1.4476 3.113-2.5862 3.7938-4.5129 0.67826-1.215 2.1535-1.458 3.3533-1.8768 1.6847-0.77868 2.2914-2.6786 3.4189-4.015 1.3411-1.8321 3.6287-2.4814 5.3244-3.8835 0.64761-0.60184 0.66596-1.5946 1.1663-2.3044 0.49899-0.7222 1.3661-1.2814 2.2756-1.1011 0.76734 0.05696 1.5729 0.60178 2.3007 0.09774 0.67743-0.51408 1.3463-1.0756 2.2064-1.2457 1.5702-0.39786 3.0549-1.0608 4.6358-1.4239 3.1142-0.82589 6.4685-1.0996 9.581-0.11365 2.2049 0.60792 4.4778 1.5939 5.8646 3.4942 1.6831 2.5093 2.4257 5.5078 2.8936 8.4543 0.05624 1.1524-0.70665 2.2779-1.8175 2.6144-2.3218 1.0508-4.9041 1.2487-7.3094 2.0434-2.127 0.63827-4.3189 1.8117-5.2757 3.9262-1.0961 2.3254-0.74532 5.2116 0.77326 7.2677 1.1207 1.9739 2.7794 3.8818 5.0632 4.4514 2.0854 0.27104 4.0774-0.59425 5.9656-1.3585 1.7619-1.0129 3.4448-2.3722 5.5374-2.5848 1.072-0.29063 1.6834-1.6817 1.0463-2.6295-0.31943-1.0888 0.52977-2.0154 1.1363-2.8147 0.92873-1.3774 0.98629-3.2884 0.04736-4.6775-0.99682-1.5899-2.8206-2.6218-3.3196-4.5239-0.46568-1.3855-0.35415-2.9746 0.41583-4.2306 0.39412-1.0027 0.06493-2.1446-0.58732-2.9575-1.3791-2.5039-2.7919-5.2425-5.3799-6.6944-2.7757-1.4824-5.9068-2.1963-9.023-2.4781-4.3016-0.33257-8.5919 0.49191-12.716 1.6531-3.0782 0.82837-6.1622 1.7622-8.9963 3.2426-1.7085 1.145-2.8147 3.0142-4.6619 3.9806-1.7046 1.0638-3.6778 1.9311-4.7797 3.7024-1.0768 1.5067-2.7626 2.3578-4.0926 3.6-2.5748 2.3987-5.1903 4.7654-7.5519 7.3792-1.3696 1.522-2.6519 3.1413-3.5596 4.9871-1.3374 2.5395-2.5306 5.1799-4.2927 7.4655-2.876 4.2933-5.7617 8.6774-7.4488 13.598-1.0277 3.2258-0.93295 6.7955 0.33636 9.9403 0.61632 1.6433 1.5367 3.1457 2.3189 4.7085 0.79357 1.8511 1.0327 3.8674 1.4522 5.8177 0.72907 2.1983 2.58 3.8285 4.6138 4.8201 4.19 2.3896 8.8101 3.8717 13.121 6.0122 5.2222 2.0722 10.904 2.2758 16.425 2.848 2.6126 0.21957 5.2356 0.39111 7.8585 0.29978 0.96169-0.23013 2.0352-0.78949 2.9873-0.2238 1.2628 0.40334 2.3152-0.63355 3.4416-0.99906 4.4863-1.2637 9.2677-1.4492 13.567-3.3625 1.18-0.30384 2.2892 0.74937 3.4664 0.29368 1.6156-0.40709 3.1617-1.0442 4.7483-1.5462 6.3961-2.3018 12.605-5.0927 18.726-8.0382 3.4414-1.8651 6.4896-4.4872 10.221-5.7893 2.2858-0.51453 4.876 0.9242 5.5225 3.2026 0.34449 1.0701 1.6627 0.66255 2.4139 1.1501 0.96047 0.65604 1.5632 1.7302 2.615 2.2738 3.1679 2.113 7.0525 2.5204 10.732 3.0081 1.7966 0.2663 3.5983 0.61467 5.2863 1.3045 1.1226 1.0229 2.4887 2.0688 4.0974 1.9319 3.9637 0.25024 7.7637-1.2341 11.294-2.8708 2.5667-1.2092 5.2785-2.3499 8.1608-2.3892 1.1027 0.32168 1.4064 1.8488 0.76157 2.7146-1.3513 2.8917-2.9989 5.8604-2.8833 9.153 0.14317 1.632 1.6702 2.7506 3.1611 3.1066 0.86609 0.31847 1.7583 0.56859 2.6001 0.95079m203.1-8.985c-2.694-0.61285-5.6112-0.6645-8.0238-2.1596-1.5713-1.3007-2.1082-3.7178-1.1725-5.542 1.8366-1.5937 4.3401-1.9142 6.4744-2.9413 4.1131-1.4844 8.6184-1.7272 12.904-0.93574 1.3993 0.19298 2.7904 0.4493 4.1622 0.78675 0.95048 0.68703 0.50511 2.2044-0.4095 2.7107-1.4957 1.1063-2.8817 2.3502-4.3223 3.5252m-116.61 4.563c-2.4471-0.54309-5.142-0.82316-7.1034-2.5458-0.99711-0.81263-1.6894-2.1385-1.4305-3.4436 0.77033-0.8073 0.68225-2.0538 0.34388-3.035 0.56635-1.7249 3.0308-2.2136 4.3399-1.0395 1.7504 1.1473 3.8251 1.8043 5.9222 1.8026 1.5073 0.14022 3.0243 0.22226 4.5138 0.50695 1.0615-0.27495 1.8451 1.4078 0.93308 2.031-0.98908 1.1557-2.5298 1.665-3.4797 2.8621-0.20299 0.38336-0.20321 0.89502 0.0798 1.2402m-116.12-3.38c-3.1649-0.0419-6.4623 0.6942-9.511-0.48408-4.2993-1.7653-9.2329-1.1151-13.414-3.2532-3.6236-1.8729-6.2995-5.1342-8.3357-8.5961-0.42457-1.2031 0.53022-2.376 1.5447-2.911 4.3706-3.0491 9.2184-5.2982 13.883-7.843 3.0036-1.6738 5.7414-3.7895 8.2016-6.1864 3.3904-3.2274 6.3964-6.8542 9.9812-9.8761 1.1203-0.75377 2.5418-1.3053 3.0866-2.6496 1.4445-2.5765 3.481-4.7596 5.5379-6.8564 0.54651-0.51379 1.0986-1.2339 1.9408-1.1408 0.77138 0.0172 1.4336 0.57371 1.6854 1.2859 0.62633 1.2954 1.174 2.6274 1.8175 3.9147 2.3157 5.0837 4.3231 10.502 4.3041 16.163-0.0389 3.3593-1.0193 6.6392-2.4154 9.6707-1.4135 4.2854-1.5722 8.9443-3.5816 13.038-1.0285 1.5812-3.0371 1.851-4.711 2.3193-1.6033 0.41736-3.2209 0.77709-4.8239 1.1957m203.78-2.831c-0.71482-1.1915-0.21598-2.6822 0.52034-3.7365 1.448-2.8666 3.2092-5.558 4.7692-8.3623 1.682-1.5987 3.3745-3.3599 4.0626-5.636 1.0838-2.5428 1.8381-5.3933 3.9236-7.3397 3.0946-2.6106 6.5312-4.8397 10.246-6.4606 1.2282-0.44026 2.6488-0.4395 3.8217 0.16745 1.2246 0.22201 2.5198-0.49938 3.6891 0.12699 1.2698 0.50306 2.6823 0.93943 3.5919 2.0168 0.97358 1.2334 1.0217 2.8828 0.91729 4.38-0.10507 5.8812-1.7508 11.628-3.984 17.032-0.8119 1.7541-1.8062 3.5749-3.4881 4.6278-1.9299 0.79175-4.0568 0.46958-6.0822 0.48227-2.4306-0.3522-4.7641-1.566-7.2716-1.2072-1.6081 0.0605-3.2106 0.25736-4.8216 0.23333m-251.4-7.625c-2.006-2.7391-2.5804-6.2751-2.2663-9.5964 0.17433-5.4635 1.4992-10.803 2.9588-16.044 0.36623-0.90358 1.1678-1.7419 0.96748-2.7869-0.84067-1.4256-0.21588-3.1951 0.71746-4.408 1.1352-2.0628 2.5956-4.0434 4.6409-5.2794 1.0145-0.95941 1.1958-2.679 2.6032-3.2349 2.6925-1.3551 5.695-1.858 8.5505-2.75 2.4284-0.61827 4.8898-1.1263 7.3824-1.4007 1.0092 0.15936 2.0268 0.99851 3.0565 0.45927 1.3752-0.64176 2.8379 0.12876 4.0949 0.69098 3.603 1.4512 7.4454 2.8914 10.056 5.9108 0.88749 0.95899 1.5552 2.4936 0.77936 3.7131-1.0869 1.897-2.996 3.079-4.4996 4.6062-1.3764 1.223-2.5675 2.6457-3.5831 4.175-1.0861 1.115-2.7509 1.6984-3.3976 3.2078-2.1395 2.9479-5.1629 5.0608-7.6879 7.6453-4.2192 3.7962-9.0639 6.8477-14.168 9.3052-2.9982 1.6332-5.787 3.612-8.6235 5.5014-0.36395 0.20402-0.73073 0.40294-1.097 0.60278m54.715-17.174c-1.4441-1.5494-1.4481-3.7947-2.2555-5.6538-1.0881-3.8063-1.9297-7.8879-4.5571-10.991-0.62788-0.80923-1.3749-1.7778-1.1135-2.8694 0.73902-1.8593 2.5608-2.902 3.8528-4.3302 1.874-1.6692 3.9073-3.1866 5.5145-5.1316 0.51827-1.128 1.265-2.2219 2.3792-2.8282 1.0712-1.3372 1.2928-3.3104 2.8518-4.252 1.8621-1.6237 2.9464-3.8837 4.2235-5.9485 1.2335-1.8709 2.6695-3.6066 4.2608-5.1838 0.30834-0.67856 1.1908-1.3624 1.935-0.9375 0.69916 0.65972 0.24878 1.7023-0.14898 2.4081-0.63897 1.3007-1.0588 2.6988-1.6027 4.0414-1.9112 5.1613-4.1499 10.192-6.2726 15.268-0.95278 2.2567-1.8965 4.5175-2.8063 6.7919m-100.36 8.831c-0.7278 0.36019-2.4669 0.011-1.843-1.0618 0.5714-0.74685 1.8215-0.78841 2.103-1.7877 0.50557-0.90247 1.1384-2.0311 2.2999-2.0971 0.48197 0.02575 1.1597 0.52725 0.80408 1.0556m-5.977 0.812c-0.42955-0.94588-0.62944-2.1816 0.0665-3.0551 0.12291-1.0106 1.9412-1.6359 2.2463-0.44767 0.04497 0.41342-0.17678 0.84402 0.01625 1.2417m302.68-7.736c-0.99318 0.05697 0.40468-1.5199 0.3138-0.38607l-9e-3 0.12607m0.501-1.871c-0.61255-2.4358 0.40233-4.8453 0.985-7.1789 2.3749-8.0669 4.9481-16.106 8.4587-23.762 0.9553-1.7435 2.2546-3.2663 3.6051-4.7137 0.34147-0.79919 1.238-1.7084 2.1709-1.2769 1.1414 0.74113 1.2224 2.2359 1.3983 3.4555 0.11519 2.1691-1.0588 4.0919-1.6948 6.0954-2.1313 5.4803-4.5118 10.911-7.7591 15.833-0.88331 1.2668-1.8288 2.4887-2.7841 3.7018"/>
</svg>

